<svg width="271" height="332" viewBox="0 0 271 332" fill="none" xmlns="http://www.w3.org/2000/svg">
<path d="M21.1719 256H90.294L99.5439 218.032C100.751 213.077 98.8759 207.796 94.2285 205.592C87.2273 202.273 77.8751 199.429 64.5848 195.388L38.5621 187.475L21.1719 256Z" fill="#000000"/>
<path d="M184.205 0L231.6 186.758L204.868 178.973C181.347 172.124 169.586 168.699 161.72 160.272C155.239 153.329 153.23 143.464 151.332 134.148C151.25 133.747 151.168 133.346 151.087 132.946L135.172 55.2124L119.257 132.946C119.175 133.346 119.094 133.747 119.012 134.148C117.114 143.464 115.104 153.329 108.623 160.272C100.758 168.699 88.9971 172.124 65.4763 178.973L38.744 186.758L86.1391 0H184.205Z" fill="#000000"/>
<path d="M249.172 256H180.05L170.8 218.032C169.593 213.077 171.468 207.796 176.115 205.592C183.116 202.273 192.469 199.429 205.759 195.388L231.782 187.475L249.172 256Z" fill="#000000"/>
<path d="M135.172 126.031C139.899 148.969 142.262 160.439 149.429 168.693C150.696 170.153 152.064 171.523 153.521 172.793C161.76 179.973 173.207 182.341 196.103 187.077C173.207 191.813 161.76 194.18 153.521 201.361C152.064 202.631 150.696 204.001 149.429 205.461C142.262 213.715 139.899 225.184 135.172 248.123C130.445 225.184 128.082 213.715 120.915 205.461C119.647 204.001 118.28 202.631 116.823 201.361C108.584 194.18 97.1363 191.813 74.2408 187.077C97.1363 182.341 108.584 179.973 116.823 172.793C118.28 171.523 119.647 170.153 120.915 168.693C128.082 160.439 130.445 148.97 135.172 126.031Z" fill="#000000"/>
<path d="M126.066 330.523L116.115 309.344H115.819V330.523H105.513V289.477H116.352L125.296 308.27H125.651V289.477H136.016V330.523H126.066Z" fill="#000000"/>
<path d="M142.358 289.477H159.653C162.891 289.477 165.339 289.994 166.997 291.028C168.655 292.062 169.761 293.574 170.314 295.562C170.906 297.511 171.202 300.176 171.202 303.557C171.202 306.778 170.946 309.384 170.432 311.372C169.919 313.321 168.813 314.872 167.116 316.026C165.457 317.139 162.969 317.696 159.653 317.696H153.197V330.523H142.358V289.477ZM155.98 309.224C157.402 309.224 158.389 309.105 158.942 308.866C159.534 308.628 159.909 308.151 160.067 307.435C160.265 306.679 160.363 305.386 160.363 303.557C160.363 301.727 160.265 300.455 160.067 299.739C159.909 298.983 159.534 298.486 158.942 298.247C158.389 298.009 157.422 297.889 156.04 297.889H153.197V309.224H155.98Z" fill="#000000"/>
<path d="M190.656 331C185.602 331 181.989 330.403 179.817 329.21C177.685 327.977 176.362 326.028 175.849 323.364C175.336 320.699 175.079 316.244 175.079 310C175.079 303.756 175.336 299.301 175.849 296.636C176.362 293.972 177.685 292.043 179.817 290.849C181.989 289.616 185.602 289 190.656 289C195.711 289 199.304 289.616 201.436 290.849C203.608 292.043 204.95 293.972 205.464 296.636C205.977 299.301 206.234 303.756 206.234 310C206.234 316.244 205.977 320.699 205.464 323.364C204.95 326.028 203.608 327.977 201.436 329.21C199.304 330.403 195.711 331 190.656 331ZM190.656 322.469C192.315 322.469 193.42 322.27 193.973 321.872C194.565 321.474 194.941 320.52 195.099 319.009C195.256 317.457 195.335 314.455 195.335 310C195.335 305.545 195.256 302.562 195.099 301.051C194.941 299.5 194.565 298.526 193.973 298.128C193.42 297.73 192.315 297.531 190.656 297.531C188.998 297.531 187.873 297.73 187.28 298.128C186.727 298.526 186.372 299.5 186.214 301.051C186.056 302.562 185.977 305.545 185.977 310C185.977 314.455 186.056 317.457 186.214 319.009C186.372 320.52 186.727 321.474 187.28 321.872C187.873 322.27 188.998 322.469 190.656 322.469Z" fill="#000000"/>
<path d="M225.03 331C222.819 331 220.489 330.901 218.041 330.702C215.632 330.543 213.52 330.304 211.703 329.986V321.932C216.126 322.29 219.482 322.469 221.772 322.469C223.352 322.469 224.517 322.409 225.267 322.29C226.057 322.17 226.609 321.952 226.925 321.634C227.241 321.355 227.439 320.997 227.518 320.56C227.597 320.082 227.636 319.426 227.636 318.591C227.636 317.477 227.537 316.682 227.34 316.205C227.182 315.727 226.807 315.389 226.215 315.19C225.662 314.952 224.675 314.733 223.253 314.534L216.975 313.58C214.566 313.261 212.908 312.108 212 310.119C211.131 308.091 210.697 305.227 210.697 301.528C210.697 298.108 211.289 295.483 212.473 293.653C213.658 291.824 215.257 290.591 217.271 289.955C219.285 289.318 221.812 289 224.852 289C227.024 289 229.156 289.119 231.249 289.358C233.342 289.597 235.138 289.875 236.639 290.193V298.128C233.322 297.73 230.124 297.531 227.044 297.531C225.741 297.531 224.734 297.591 224.023 297.71C223.352 297.79 222.839 297.949 222.483 298.187C222.088 298.426 221.832 298.764 221.713 299.202C221.595 299.639 221.535 300.276 221.535 301.111C221.535 302.105 221.595 302.821 221.713 303.259C221.832 303.696 222.088 304.014 222.483 304.213C222.878 304.412 223.569 304.591 224.556 304.75L230.657 305.645C232.276 305.884 233.618 306.301 234.684 306.898C235.75 307.494 236.619 308.528 237.29 310C238.08 311.67 238.475 314.156 238.475 317.457C238.475 321.355 237.922 324.278 236.817 326.227C235.711 328.176 234.211 329.469 232.315 330.105C230.459 330.702 228.031 331 225.03 331Z" fill="#000000"/>
<path d="M43.7196 330.523L34.243 289.477H45.2596L51.0048 319.068H51.5378L57.2238 289.477H68.0628L58.5269 330.523H43.7196Z" fill="#000000"/>
<path d="M24.9296 330.523L23.2712 323.125H12.3731L10.8331 330.523H0.171875L10.3593 289.477H25.5812L35.7686 330.523H24.9296ZM17.9998 298.844H17.5852L14.2092 314.833H21.4351L17.9998 298.844Z" fill="#000000"/>
<path d="M89.9872 323.034L91.559 330.045H102.398L99.8628 319.831L94.1233 320.966C92.5509 321.277 91.1331 322.006 89.9872 323.034Z" fill="#000000"/>
<path d="M78.9317 322.988L77.4625 330.045H66.8012L69.3257 319.874L74.8476 320.966C76.3963 321.272 77.795 321.984 78.9317 322.988Z" fill="#000000"/>
<path d="M70.1944 316.374L74.8476 315.455C78.3369 314.765 81.0649 312.017 81.7496 308.502L84.4855 294.46L87.2213 308.502C87.906 312.017 90.6341 314.765 94.1233 315.455L99.0166 316.422L92.2105 289H76.9886L70.1944 316.374Z" fill="#000000"/>
<path d="M250.21 331.045V298.889H241.148V290H270.171V298.889H261.049V331.045H250.21Z" fill="#000000"/>
</svg>
